# xmcd
#
# Track frame offsets: 
#        150
#        16230
#        42008
#        57966
#        69116
#        81041
#        94876
#        110395
#        123750
#        139811
#        157825
#        173953
#        190629
#        212010
#        227599
#
# Disc length: 3177 seconds
#
# Revision: 0
# Processed by: cddbd v1.5.2PL0 Copyright (c) Steve Scherf et al.
# Submitted via: ExactAudioCopyFreeDBPlugin 1.0
#
DISCID=b30c670f
DTITLE=Bebeto Alves - O Homem Invisível
DYEAR=2018
DGENRE=Vocal
TTITLE0=O homem invisível
TTITLE1=Que bom
TTITLE2=Líquido
TTITLE3=Te cuida
TTITLE4=Meia verdade
TTITLE5=Beirute
TTITLE6=Pedra pedrinha
TTITLE7=A descoberta
TTITLE8=Nós não vamos dormir
TTITLE9=Tchau
TTITLE10=Filme B
TTITLE11=Um pouco mais 
TTITLE12=Até onde o coração mandar
TTITLE13=Noite azul
TTITLE14=Em obras
EXTD=
EXTT0=
EXTT1=
EXTT2=
EXTT3=
EXTT4=
EXTT5=
EXTT6=
EXTT7=
EXTT8=
EXTT9=
EXTT10=
EXTT11=
EXTT12=
EXTT13=
EXTT14=
PLAYORDER=
